<?xml version="1.0" encoding="UTF-8" standalone="no"?>
<!-- Created with Inkscape (http://www.inkscape.org/) -->

<svg
   width="150mm"
   height="200mm"
   viewBox="0 0 150 200"
   version="1.1"
   id="svg1"
   xml:space="preserve"
   inkscape:export-filename="bitmap2.png"
   inkscape:export-xdpi="96"
   inkscape:export-ydpi="96"
   inkscape:version="1.3.2 (091e20e, 2023-11-25)"
   sodipodi:docname="postscore.svg"
   xmlns:inkscape="http://www.inkscape.org/namespaces/inkscape"
   xmlns:sodipodi="http://sodipodi.sourceforge.net/DTD/sodipodi-0.dtd"
   xmlns="http://www.w3.org/2000/svg"
   xmlns:svg="http://www.w3.org/2000/svg"><sodipodi:namedview
     id="namedview1"
     pagecolor="#ffffff"
     bordercolor="#000000"
     borderopacity="0.25"
     inkscape:showpageshadow="2"
     inkscape:pageopacity="0.0"
     inkscape:pagecheckerboard="0"
     inkscape:deskcolor="#d1d1d1"
     inkscape:document-units="mm"
     inkscape:export-bgcolor="#ffffffff"
     inkscape:zoom="0.33110174"
     inkscape:cx="247.65802"
     inkscape:cy="539.10922"
     inkscape:window-width="1440"
     inkscape:window-height="774"
     inkscape:window-x="0"
     inkscape:window-y="25"
     inkscape:window-maximized="0"
     inkscape:current-layer="layer1" /><defs
     id="defs1"><rect
       x="83.703705"
       y="111.60494"
       width="1654.5432"
       height="329.23456"
       id="rect4" /><rect
       x="38.051514"
       y="99.885223"
       width="546.99054"
       height="233.06554"
       id="rect3" /></defs><g
     inkscape:label="Layer 1"
     inkscape:groupmode="layer"
     id="layer1"><text
       xml:space="preserve"
       transform="scale(0.26458333)"
       id="text3"
       style="font-style:normal;font-variant:normal;font-weight:900;font-stretch:normal;font-family:'.SF NS Mono';-inkscape-font-specification:'.SF NS Mono Heavy';letter-spacing:-10px;white-space:pre;shape-inside:url(#rect3);display:inline;fill:#000000" /><text
       xml:space="preserve"
       transform="scale(0.26458333)"
       id="text4"
       style="font-style:normal;font-variant:normal;font-weight:900;font-stretch:normal;font-size:249.333px;font-family:'.SF NS Mono';-inkscape-font-specification:'.SF NS Mono Heavy';letter-spacing:-10px;white-space:pre;shape-inside:url(#rect4);display:inline;fill:#000000" /><text
       xml:space="preserve"
       style="font-style:normal;font-variant:normal;font-weight:900;font-stretch:normal;font-size:65.9694px;font-family:'.SF NS Mono';-inkscape-font-specification:'.SF NS Mono Heavy';letter-spacing:0px;fill:#000000;stroke-width:0.264583"
       x="52.413658"
       y="109.9948"
       id="text5"><tspan
         sodipodi:role="line"
         id="tspan5"
         style="letter-spacing:0px;stroke-width:0.264583"
         x="52.413658"
         y="109.9948" /></text><g
       id="g12"
       transform="translate(-0.2681312)" /><ellipse
       style="fill:none;fill-opacity:1;stroke:none;stroke-width:3.49999;stroke-linecap:round;stroke-linejoin:round;stroke-dasharray:none;stroke-opacity:1"
       id="path12"
       cx="25.821716"
       cy="188.49852"
       rx="3.2994416"
       ry="1.5779938" /><g
       id="g1"
       transform="translate(-1.539515,18.013033)"><path
         id="rect7-9"
         style="fill:#c58600;fill-opacity:1;stroke:none;stroke-width:3.47599;stroke-linecap:round;stroke-linejoin:round;stroke-dasharray:none;stroke-opacity:1"
         d="m 58.217129,100.39893 18.886313,32.24218 16.874342,-30.86033 z"
         sodipodi:nodetypes="cccc" /><path
         id="rect7-7"
         style="fill:#ffdc2b;fill-opacity:1;stroke:#000000;stroke-width:3.39764;stroke-linecap:round;stroke-linejoin:round;stroke-dasharray:none;stroke-opacity:1"
         d="m 94.805868,69.089865 c -0.131915,5.5349 -14.33462,6.890076 -17.983394,6.748786 -1.655504,-0.0641 -18.78402,-1.518966 -18.51763,-7.249976 l -0.06645,12.854597 v 17.511481 c 0,0 6.320644,7.191177 18.891009,7.205957 11.201021,0.0131 17.569887,-6.923267 17.569887,-6.923267 l 0.141346,-26.755288 z"
         sodipodi:nodetypes="cscccsccc" /><g
         id="g17"
         transform="translate(0,-21.166667)"><path
           style="fill:#000000"
           d="m 71.48764,95.841073 v -17.92112 c 0,-16.23568 -0.0341,-16.65111 -1.36618,-16.65111 -0.28573,0 -2.75859,0.93311 -5.49523,2.07357 -5.37797,2.24121 -11.79774,4.40643 -14.24713,4.80519 -1.49163,0.24283 -1.57112,0.20567 -3.22105,-1.50611 -2.82251,-2.9283 -3.90149,-7.29479 -2.75587,-11.15255 0.61906,-2.08461 3.14958,-4.49405 5.51833,-5.25432 2.60843,-0.8372 17.65386,-0.89342 20.40554,-0.0763 1.87947,0.55814 4.03813,2.51843 4.70511,4.27272 0.19877,0.5228 0.33704,8.53894 0.33704,19.53991 0,10.25939 -0.1255,21.52315 0.0231,21.61501 z"
           id="path5"
           sodipodi:nodetypes="csssssssssscc" /><path
           style="fill:#000000"
           d="m 81.591398,95.303983 v -7.33778 c 0,-16.23568 0.0341,-16.65111 1.36618,-16.65111 0.28573,0 2.75859,0.93311 5.49523,2.07357 5.37797,2.24121 11.797742,4.40643 14.247122,4.80519 1.49163,0.24283 1.57112,0.20567 3.22105,-1.50611 2.82251,-2.9283 3.90149,-7.29479 2.75587,-11.15255 -0.61906,-2.08461 -3.14958,-4.49405 -5.51833,-5.25432 -2.60842,-0.8372 -17.653852,-0.89342 -20.405532,-0.0763 -1.87947,0.55814 -4.03813,2.51843 -4.70511,4.27272 -0.19877,0.5228 -0.33704,8.53894 -0.33704,19.53991 0,10.25939 0.1255,11.17549 -0.0231,11.26735 z"
           id="path5-4"
           sodipodi:nodetypes="csssssssssscc" /></g><path
         id="rect7"
         style="fill:none;fill-opacity:0;stroke:#000000;stroke-width:3.47599;stroke-linecap:round;stroke-linejoin:round;stroke-dasharray:none;stroke-opacity:1"
         d="m 58.277512,68.740552 0.07243,14.16434 v 18.404248 l 18.748129,32.51854 17.703447,-32.51854 V 70.292547 l -0.06867,12.612345"
         sodipodi:nodetypes="ccccccc" /><path
         style="fill:#000000;fill-opacity:1;stroke:none;stroke-width:4.34849;stroke-linecap:round;stroke-linejoin:round;stroke-dasharray:none;stroke-opacity:1"
         d="m 67.570607,115.01631 c 0,0 5.248735,6.15967 8.825368,6.10496 4.778519,-0.0731 11.536026,-8.51331 11.536026,-8.51331 l -10.769378,17.94817 z"
         id="path10"
         sodipodi:nodetypes="caccc" /><path
         d="m 67.743095,61.344165 c -5.827348,1.299205 -9.456321,3.780736 -9.475584,6.47947 -1.48e-4,4.096347 8.180556,7.41711 18.272004,7.4171 10.091448,1e-5 18.272152,-3.320753 18.272004,-7.4171 -0.0018,-2.509672 -3.129891,-4.848756 -8.313601,-6.216539"
         style="fill:none;stroke:#000000;stroke-width:3.45599;stroke-linecap:round;stroke-linejoin:round;stroke-dasharray:none"
         id="path16"
         sodipodi:nodetypes="ccscc" /><g
         id="g18"
         transform="matrix(0.98416017,0,0,1.1671809,-0.34998074,-42.114451)"><path
           style="fill:#000000;fill-opacity:1;stroke:#000000;stroke-width:3.49999;stroke-linecap:round;stroke-linejoin:round;stroke-dasharray:none;stroke-opacity:1"
           d="m 70.656015,124.93315 10e-7,-16.66906"
           id="path14"
           sodipodi:nodetypes="cc" /><path
           style="fill:#000000;fill-opacity:1;stroke:#000000;stroke-width:3.49999;stroke-linecap:round;stroke-linejoin:round;stroke-dasharray:none;stroke-opacity:1"
           d="m 85.598012,124.93315 10e-7,-11.22861"
           id="path14-9"
           sodipodi:nodetypes="cc" /></g></g></g></svg>
